# xmcd CD database file
#
# Track frame offsets:
#	150
#	31074
#	62460
#	87017
#	97861
#	121577
#	128406
#	147764
#	170771
#	181918
#
# Disc length: 2982 seconds
#
# Revision: 0
# Processed by: cddbd v1.5.1PL2 Copyright (c) Steve Scherf et al.
# Submitted via: CDex 1.51
#
DISCID=6c0ba40a
DTITLE=Neil Lockwood - You can't get there from here
DYEAR=1900
DGENRE=Rhythmic Soul
TTITLE0=The Eliploge
TTITLE1=You can't get there from here
TTITLE2=Crystal Heart
TTITLE3=Toxic Grace
TTITLE4=God and Chips
TTITLE5=Just Passing
TTITLE6=Out of Control
TTITLE7=The Edge of Forever
TTITLE8=bonus track 1
TTITLE9=bonus track 2
EXTD=
EXTT0=
EXTT1=
EXTT2=
EXTT3=
EXTT4=
EXTT5=
EXTT6=
EXTT7=
EXTT8=
EXTT9=
PLAYORDER=
